<svg id="acousticGuitar" xmlns="http://www.w3.org/2000/svg" viewBox="0 0 105 105"><defs><style>.cls-1{fill:#231f20;}.cls-2,.cls-3{fill:none;stroke:#231f20;stroke-miterlimit:10;}.cls-3{stroke-width:5px;}</style></defs><title>acousticGuitar</title><g id="guitarBody"><path class="cls-1" d="M77.56,34.87s6.49-8.69,10.89-10.71L81.34,17a32,32,0,0,1-10.7,10.71l1.67,1.73L53.89,46.74c-4.63-3.26-9.91-3.81-12.73-1v0a9.66,9.66,0,0,0-3,4.83v0s-.94,2.37-2.32,3.1A16.08,16.08,0,0,1,30,55.38,17.74,17.74,0,0,0,24.86,57h0a15.71,15.71,0,0,0-2.39,1.29c-3.49,1.89-5.82,4.82-6,8.25a8.42,8.42,0,0,0,.24,2.6c.24,3.55,2.56,8.2,6.49,12.31,4.5,4.71,9.81,7.35,13.49,7.07,5.52,0,11-5.28,13-12.79.12-.46.22-.93.31-1.39,0,0,0,0,0,0a23.34,23.34,0,0,1,.89-3.38,7.26,7.26,0,0,1,3.47-3.6,25.24,25.24,0,0,0,4.27-2.42c.13-.09.27-.17.39-.27l.11-.08h0a5.72,5.72,0,0,0,.46-.4,6.27,6.27,0,0,0,1.71-3.5,6.51,6.51,0,0,0,.15-1,6.42,6.42,0,0,0-.16-1.91,15.19,15.19,0,0,0-2.65-6.27L75.93,33.18ZM36.7,78.24a.89.89,0,0,1-.57-.21h0L36.06,78l0,0-9-9h0a.9.9,0,0,1-.26-.63.91.91,0,0,1,1.57-.63l9,9,0,0,.06.06h0a.89.89,0,0,1-.7,1.47Zm6.55-9.31a7.29,7.29,0,1,1,7.28-7.28A7.28,7.28,0,0,1,43.25,68.93Z"/></g><circle id="guitarCenter" class="cls-2" cx="43.25" cy="61.65" r="5.26"/><path id="bottomLeft" class="cls-1" d="M73.74,25.17c.35-.31.24-1-.25-1.56s-1.17-.73-1.52-.42-.24,1,.25,1.56S73.39,25.49,73.74,25.17Z"/><path id="middleLeft" class="cls-1" d="M76.57,22.47c.35-.32.24-1-.25-1.56s-1.18-.74-1.53-.43-.23,1,.26,1.56S76.22,22.78,76.57,22.47Z"/><path id="topLeft" class="cls-1" d="M79,19.8c.35-.31.23-1-.26-1.55s-1.17-.74-1.52-.43-.24,1,.25,1.56S78.68,20.12,79,19.8Z"/><path id="bottomRight" class="cls-1" d="M80.39,31.86c-.35.32-.22,1,.28,1.56s1.19.71,1.53.39.22-1-.28-1.56S80.73,31.54,80.39,31.86Z"/><path id="middleRight" class="cls-1" d="M83,29.26c-.34.33-.21,1,.29,1.56s1.19.71,1.53.39.21-1-.29-1.55S83.31,28.94,83,29.26Z"/><path id="topRight" class="cls-1" d="M85.51,26.49c-.34.32-.21,1,.29,1.55s1.18.71,1.53.39.21-1-.29-1.55S85.85,26.16,85.51,26.49Z"/><rect id="border" class="cls-3" x="2.48" y="2.57" width="100" height="100" rx="12"/></svg>