<svg id="INSTAGRAM" xmlns="http://www.w3.org/2000/svg" xmlns:xlink="http://www.w3.org/1999/xlink" viewBox="0 0 105 105"><defs><style>.cls-1{fill:url(#linear-gradient);}.cls-2{fill:url(#linear-gradient-2);}.cls-3{fill:url(#linear-gradient-3);}</style><linearGradient id="linear-gradient" x1="27.71" y1="108.24" x2="77.29" y2="-3.11" gradientUnits="userSpaceOnUse"><stop offset="0" stop-color="#805358"/><stop offset="0.47" stop-color="#a08f93"/><stop offset="1" stop-color="#c6d7da"/></linearGradient><linearGradient id="linear-gradient-2" x1="39.36" y1="83.65" x2="66.04" y2="23.74" xlink:href="#linear-gradient"/><linearGradient id="linear-gradient-3" x1="47.26" y1="64.91" x2="57.29" y2="42.38" xlink:href="#linear-gradient"/></defs><title>instagram</title><path class="cls-1" d="M86.71,2.57H18.29A15.84,15.84,0,0,0,2.5,18.36V86.77a15.84,15.84,0,0,0,15.79,15.8H86.71a15.84,15.84,0,0,0,15.79-15.8V18.36A15.84,15.84,0,0,0,86.71,2.57ZM70.88,86.71l-36,.08A15.84,15.84,0,0,1,19.09,71l-.36-34.52A15.83,15.83,0,0,1,34.52,20.68l36-.08a15.84,15.84,0,0,1,15.8,15.79l.36,34.53A15.84,15.84,0,0,1,70.88,86.71Z"/><path class="cls-2" d="M68.06,25.89H37.34A13.3,13.3,0,0,0,24.08,39.15V68.24A13.3,13.3,0,0,0,37.34,81.5H68.06A13.3,13.3,0,0,0,81.32,68.24V39.15A13.3,13.3,0,0,0,68.06,25.89Zm-15.78,45c-9,0-17-8.14-17-17.17s8-17.09,17-17.09,17,8,17,17S61.31,70.86,52.28,70.86Zm18-31.37a3.82,3.82,0,1,1,3.81-3.82A3.82,3.82,0,0,1,70.33,39.49Z"/><circle class="cls-3" cx="52.28" cy="53.64" r="12.33"/></svg>