<svg id="microphone1" xmlns="http://www.w3.org/2000/svg" viewBox="0 0 105 105"><defs><style>.cls-1{fill:#231f20;}.cls-2{fill:none;stroke:#231f20;stroke-miterlimit:10;stroke-width:5px;}</style></defs><title>microphone1</title><g id="microphoneAudio"><path class="cls-1" d="M46.46,37.68a14.41,14.41,0,0,0,12,0C53.49,37.72,48.92,37.7,46.46,37.68Z"/><path class="cls-1" d="M52.49,10.06a14.46,14.46,0,0,0-7.67,26.73c6.64.17,13.64,0,15.33,0a14.46,14.46,0,0,0-7.66-26.73ZM39.1,26.55V22.7a245.9,245.9,0,0,0,26.72,0,22.91,22.91,0,0,1,0,3.85C48.8,27.72,39.1,26.55,39.1,26.55Z"/></g><path id="topBodyMic" class="cls-1" d="M44,37.68H59.92s-.6,4-.6,5.48H44.87S44.9,39.46,44,37.68Z"/><g id="bodyMic"><rect class="cls-1" x="50.38" y="61.89" width="3.24" height="1.26"/><rect class="cls-1" x="50.38" y="64.95" width="3.24" height="1.35"/><path class="cls-1" d="M44.92,44.36l2.45,45.93H57l2.22-45.93Zm7.18,33.5c-2.45.23-2.33-2.64-2.33-2.64V59.46s.11-2.68,2.21-2.68a2.45,2.45,0,0,1,2.45,2.68v15.6A2.63,2.63,0,0,1,52.1,77.86Z"/></g><polygon id="bottomMic" class="cls-1" points="47.31 91.12 56.69 91.12 54.43 93.5 49.77 93.5 47.31 91.12"/><rect id="bottomChord" class="cls-1" x="50.38" y="93.5" width="3.24" height="4.61"/><rect id="border" class="cls-2" x="2.5" y="2.57" width="100" height="100" rx="12"/></svg>