<svg id="microphone2" xmlns="http://www.w3.org/2000/svg" viewBox="0 0 105 105"><defs><style>.cls-1{fill:#231f20;}.cls-2{fill:none;stroke:#231f20;stroke-miterlimit:10;stroke-width:5px;}</style></defs><title>microphone2</title><path id="bottomMic" class="cls-1" d="M47.25,19.82A18.69,18.69,0,0,1,53,32.15h0C49,42.41,38.42,50.8,37.05,51.86a18.6,18.6,0,0,1-12.81-2.62A55.51,55.51,0,0,0,47.25,19.82Z"/><path id="microphoneAudio" class="cls-1" d="M34.21,14.62A19,19,0,0,1,45,18C38.07,36.1,23,46.33,21.56,47.23a18.59,18.59,0,0,1-6.22-13.87A18.81,18.81,0,0,1,34.21,14.62ZM16.92,26.2a4.19,4.19,0,0,0-.42,1l-.3,1.07a.81.81,0,0,0,.34.08,1.05,1.05,0,0,0,.94-1.14A1.16,1.16,0,0,0,16.92,26.2Zm.8,3.25a1.25,1.25,0,0,0,1.09,1.36,1.39,1.39,0,0,0,0-2.71A1.25,1.25,0,0,0,17.72,29.45ZM40.4,18.13c.6,0,1.08-.71,1.08-1.6a2.62,2.62,0,0,0,0-.28,7.74,7.74,0,0,0-1-.45c-.31-.12-.9-.3-.9-.3a2.07,2.07,0,0,0-.26,1C39.31,17.42,39.79,18.13,40.4,18.13ZM36.9,21.9c.6,0,1.09-.71,1.09-1.59s-.49-1.6-1.09-1.6-1.09.71-1.09,1.6S36.3,21.9,36.9,21.9Zm-1.09-5.37c.6,0,1.09-.71,1.09-1.59,0,0,0,0,0,0s-.53-.07-1.11-.12-1.08,0-1.08,0,0,.13,0,.2C34.72,15.82,35.21,16.53,35.81,16.53ZM33.57,27.24c.6,0,1.09-.71,1.09-1.6s-.49-1.59-1.09-1.59-1.09.71-1.09,1.59S33,27.24,33.57,27.24Zm-.44-7.95c.6,0,1.08-.72,1.08-1.6s-.48-1.6-1.08-1.6S32,16.81,32,17.69,32.52,19.29,33.13,19.29ZM29.47,32.44c.6,0,1.09-.72,1.09-1.6s-.49-1.6-1.09-1.6-1.09.72-1.09,1.6S28.87,32.44,29.47,32.44Zm0-8.39c.6,0,1.09-.72,1.09-1.6s-.49-1.6-1.09-1.6-1.09.72-1.09,1.6S28.87,24.05,29.47,24.05Zm0-6.61a1.24,1.24,0,0,0,1.09-1.35,1.43,1.43,0,0,0-.32-1s-.6.12-.87.2c-.46.13-.92.29-.92.29a1.72,1.72,0,0,0-.07.47A1.24,1.24,0,0,0,29.47,17.44Zm-2.12,2.62a1.24,1.24,0,0,0-1.09-1.35,1.24,1.24,0,0,0-1.09,1.35,1.24,1.24,0,0,0,1.09,1.35A1.24,1.24,0,0,0,27.35,20.06Zm-1.86,5.58c-.6,0-1.09.72-1.09,1.6s.49,1.6,1.09,1.6,1.09-.72,1.09-1.6S26.09,25.64,25.49,25.64Zm-.32,11.15c.6,0,1.09-.72,1.09-1.6s-.49-1.6-1.09-1.6-1.09.72-1.09,1.6S24.57,36.79,25.17,36.79Zm-.75-18.21a1.24,1.24,0,0,0-.38-.92l-.76.55-.73.56h0a1,1,0,0,0,.93.95A1.05,1.05,0,0,0,24.42,18.58Zm-2.33,5.1a1.39,1.39,0,0,0,0,2.71,1.39,1.39,0,0,0,0-2.71Zm1,8.08c0-.88-.48-1.6-1.08-1.6s-1.09.72-1.09,1.6.48,1.6,1.09,1.6S23.06,32.64,23.06,31.76ZM21.45,41c.6,0,1.09-.71,1.09-1.59s-.49-1.6-1.09-1.6-1.09.71-1.09,1.6S20.85,41,21.45,41ZM20.36,22.91a1.08,1.08,0,0,0-.86-1.14h0l-1,1.37a.59.59,0,0,0,0,.2,1,1,0,0,0,.87.71A1.05,1.05,0,0,0,20.36,22.91ZM19.9,35.73c0-.88-.49-1.59-1.09-1.59s-1.09.71-1.09,1.59.49,1.6,1.09,1.6S19.9,36.62,19.9,35.73ZM17.84,42.3c.43.8.86,1.45.86,1.45a2.13,2.13,0,0,0,.3-1.11c0-.88-.49-1.6-1.09-1.6a.83.83,0,0,0-.61.28Zm-1.65-8.16a1.39,1.39,0,0,0,0-2.71.92.92,0,0,0-.66.28s0,.52,0,1,0,1.18,0,1.18A1,1,0,0,0,16.19,34.14Z"/><g id="body"><path class="cls-1" d="M80.67,57.47c.19.2.37.41.53.6,5.66,6.65,3.43,10.53,3.43,10.53s-6,11.55-14.2,7.75c-.74-.34-1.82-.95-3.07-1.7C68.1,73.91,77.26,64.73,80.67,57.47Z"/><path class="cls-1" d="M41.05,54.18a44.24,44.24,0,0,0,15.42-19S69.15,46,76.9,53.57A47.91,47.91,0,0,1,63.13,72c-1.36-.9-2.72-1.84-4-2.72L54,65.36c-3.75-2.89-5.24-4.24-5.24-4.24C43.78,56.38,41.05,54.18,41.05,54.18Z"/></g><path id="bottomDetail" class="cls-1" d="M76.9,53.07s-.22,0-.69,1S63.08,71.79,63,71.87s-.09.41.2.17c0,0,11.93-10.61,13.86-18.59C77.06,53.45,77.18,53,76.9,53.07Z"/><polygon id="standLeft" class="cls-1" points="51.91 65.98 55.79 68.9 55.79 96.2 51.91 96.2 51.91 65.98"/><polygon id="standRight" class="cls-1" points="56.46 69.46 57.55 70.18 57.87 96.2 56.6 96.2 56.46 69.46"/><rect id="border" class="cls-2" x="2.46" y="2.5" width="100" height="100" rx="12"/></svg>