<svg id="microphone3" xmlns="http://www.w3.org/2000/svg" viewBox="0 0 105 105"><defs><style>.cls-1{fill:#231f20;}.cls-2{fill:none;stroke:#231f20;stroke-miterlimit:10;stroke-width:5px;}</style></defs><title>microphone3</title><g id="microphoneAudio"><path id="topMic" class="cls-1" d="M73,9.15a17.12,17.12,0,0,0-14,7.21C60,17.83,66.3,27.6,69.94,31c3.94,3.68,7.48,6.89,13,9.27A17.15,17.15,0,0,0,73,9.15Z"/><path id="bottomMic" class="cls-1" d="M66.29,33a55.93,55.93,0,0,1-9.2-13,16.95,16.95,0,0,0-.17,12.29,41.47,41.47,0,0,0,9.41,9.9,17.07,17.07,0,0,0,12.76.22C77.31,41.37,70.37,37.42,66.29,33Z"/></g><path id="topBody" class="cls-1" d="M53.78,33.48s4.82,7.83,11.83,12c0,0-3.91,3.55-4.46,3.91,0,0-7.65-4.28-11.47-11.2C49.68,38.21,53.23,34.39,53.78,33.48Z"/><path id="bottomMic-2" data-name="bottomMic" class="cls-1" d="M18.91,73.39,25.53,80l-4,3.48a4.06,4.06,0,0,1-5.39-.89c-2.39-2.86-1.23-4.84,0-6.07S18.91,73.39,18.91,73.39Z"/><path id="bodyMic" class="cls-1" d="M47.58,41.44c-3.67,3.13-26.49,29.4-26.49,29.4l7.36,6.94,8.31-7.54,6.07-5.08c3.53-2.72,15.29-13.49,15.29-13.49C52.61,48.88,47.58,41.44,47.58,41.44ZM43,58.66c-1.6,1.61-3.53,2.29-4.29,1.53s-.09-2.69,1.52-4.3,3.53-2.29,4.3-1.52S44.63,57.05,43,58.66Z"/><polygon id="standLeft" class="cls-1" points="44.14 65.63 40.15 69.1 40.15 97.32 44.14 97.32 44.14 65.63"/><polygon id="standRight" class="cls-1" points="44.77 65.18 44.75 97.32 45.66 97.32 45.66 64.36 44.77 65.18"/><rect id="border" class="cls-2" x="2.48" y="2.5" width="100" height="100" rx="12"/></svg>