<svg id="snap" xmlns="http://www.w3.org/2000/svg" xmlns:xlink="http://www.w3.org/1999/xlink" viewBox="0 0 105 105"><defs><style>.cls-1,.cls-2,.cls-3,.cls-4,.cls-5{stroke:#231f20;stroke-miterlimit:10;}.cls-1,.cls-2,.cls-3,.cls-4{stroke-width:4px;}.cls-1{fill:url(#linear-gradient);}.cls-2{fill:url(#linear-gradient-2);}.cls-3{fill:url(#linear-gradient-3);}.cls-4,.cls-5{fill:none;}.cls-5{stroke-width:5px;}</style><linearGradient id="linear-gradient" x1="64.68" y1="17.91" x2="66.77" y2="17.91" gradientTransform="translate(-5.57 1.49)" gradientUnits="userSpaceOnUse"><stop offset="0" stop-color="#9d1f60"/><stop offset="1" stop-color="#932a8e"/></linearGradient><linearGradient id="linear-gradient-2" x1="-39.68" y1="96.25" x2="-37.6" y2="96.25" gradientTransform="translate(89.1 -74.36)" xlink:href="#linear-gradient"/><linearGradient id="linear-gradient-3" x1="-304.29" y1="-106.32" x2="-302.21" y2="-106.32" gradientTransform="matrix(1, 0, 0, -1, 373, -84.08)" xlink:href="#linear-gradient"/></defs><title>snap</title><rect id="soundCenter" class="cls-1" x="59.11" y="14.83" width="2.09" height="9.12" rx="1.04" transform="translate(0.36 -1.1) rotate(1.05)"/><rect id="soundLeft" class="cls-2" x="49.42" y="17.33" width="2.09" height="9.12" rx="1.04" transform="translate(-3.15 34.2) rotate(-36.39)"/><rect id="soundRight" class="cls-3" x="68.7" y="17.68" width="2.09" height="9.12" rx="1.04" transform="translate(110.5 83.06) rotate(-141.52)"/><rect id="middleFinger" class="cls-4" x="40.84" y="36.62" width="8.46" height="33.22" rx="3.8" transform="translate(-24.64 55.27) rotate(-51.42)"/><rect id="ringFinger" class="cls-4" x="36.22" y="44.67" width="8.46" height="31.48" rx="3.8" transform="translate(-32 54.36) rotate(-51.42)"/><rect id="pinkyFinger" class="cls-4" x="32.03" y="53.88" width="8.46" height="28.29" rx="3.8" transform="translate(-39.54 53.95) rotate(-51.42)"/><path id="hand" class="cls-4" d="M63.69,84s-4.94,7.09-11.25,2S26,64.89,26,64.89s-2.67-2.53-.61-5.35,4.53-2.19,5.88-1.26c0,0-5.61-3-2.93-7.36,0,0,2.31-3.81,5.88-1.26,0,0-4.71-2.72-1.94-6.46,0,0,2.29-3.69,5.88-1.27l-13-10.35s-2.94-2.86-.65-5.78a4.08,4.08,0,0,1,6-.94L59,47.64a3.73,3.73,0,0,0,3.15,1.13c2.1-.17,2.18-1,3.13-2.23L72.13,38s3.58-3.49,6.37-.71,1.67,5.17.72,6.36l-7.08,8.87s-1.28.84.31,3.84A59,59,0,0,1,75.56,64a7.46,7.46,0,0,1-.72,6C73,72.73,63.69,84,63.69,84Z"/><rect id="border" class="cls-5" x="2.51" y="2.57" width="100" height="100" rx="12"/></svg>