<svg id="snareDrum2" xmlns="http://www.w3.org/2000/svg" viewBox="0 0 105 105"><defs><style>.cls-1{fill:#231f20;}.cls-2{fill:none;stroke:#231f20;stroke-miterlimit:10;stroke-width:5px;}</style></defs><title>snareDrum2</title><path id="topRing1" class="cls-1" d="M52.55,27.8c12.74,0,22,4.55,29.54,10.38,0-10-16.8-15.8-29.54-15.8S22.41,28.14,22.41,38.59C30.32,32.83,39.81,27.8,52.55,27.8Z"/><path id="bottomSnare" class="cls-1" d="M52.55,81.21c12.74,0,21.4-4.63,29.54-10.37,0,10-16.8,15.8-29.54,15.8S22.41,80.76,22.41,70.42C30.08,75.86,39.81,81.21,52.55,81.21Z"/><ellipse id="drumSurface" class="cls-1" cx="52.25" cy="41.16" rx="30.11" ry="11.58"/><path id="topRing2" class="cls-1" d="M52.25,54.38c12.75,0,21.81-5.07,30.11-10.09,0,2-.27,5-.27,5-5.68,4.59-20.8,9.55-29.84,9.31A52.77,52.77,0,0,1,22.41,48.9a45.16,45.16,0,0,1-.27-4.84C29.81,49.5,39.51,54.38,52.25,54.38Z"/><g id="snareBody"><path id="middleLeftBody" class="cls-1" d="M41.34,59.57v4.17a2.32,2.32,0,0,1,1.56,2.18v5.31a2.3,2.3,0,0,1-1.56,2.17V78l-1.66-.35a46.34,46.34,0,0,0,11.69,1.64V74.42a2.33,2.33,0,0,1-1.42-2.14V67a2.32,2.32,0,0,1,1.4-2.12V60.6h.21l-.85,0h-.21a56.46,56.46,0,0,1-9.41-1.06Z"/><path id="rightMiddleBody" class="cls-1" d="M65,59.1l0,4.36a2.31,2.31,0,0,1,1.44,2.14v5.31A2.31,2.31,0,0,1,65.18,73l0,4.4a52.5,52.5,0,0,0,9.75-4V68.71a2.32,2.32,0,0,1-1.33-2.09V61.31A2.32,2.32,0,0,1,75,59.22V55.61a51,51,0,0,1-10.31,3.57Z"/><path id="middleRightBody" class="cls-1" d="M53.12,74.42v4.83A45.3,45.3,0,0,0,63.1,78v-5a2.31,2.31,0,0,1-1.22-2V65.6a2.32,2.32,0,0,1,1.22-2v-4l.58-.13A55.53,55.53,0,0,1,52.61,60.6h.51v4.23A2.32,2.32,0,0,1,54.56,67v5.31A2.3,2.3,0,0,1,53.12,74.42Z"/><path id="rightBody" class="cls-1" d="M81.55,51.83a46.71,46.71,0,0,1-4.84,2.92h0v4.4a2.32,2.32,0,0,1,1.54,2.17v5.31a2.33,2.33,0,0,1-1.54,2.17v3.69A59.79,59.79,0,0,0,82.26,69V51.83Z"/><path id="leftMiddleBody" class="cls-1" d="M39.55,73.29a2.33,2.33,0,0,1-1.28-2.06V65.92a2.32,2.32,0,0,1,1.28-2.06V59.19l.65.14a51.52,51.52,0,0,1-11.13-3.77l.44.21v3A2.33,2.33,0,0,1,31,61v5.31a2.3,2.3,0,0,1-1.49,2.15v5a46.21,46.21,0,0,0,10,4.16Z"/><path id="leftBody" class="cls-1" d="M27.88,68.42a2.31,2.31,0,0,1-1.51-2.16V61a2.33,2.33,0,0,1,1.56-2.18L28,55l.34.16a45,45,0,0,1-5.69-3.35S22.44,55,22.31,59l-.07,9.66a64.12,64.12,0,0,0,5.62,3.82Z"/></g><rect id="border" class="cls-2" x="2.46" y="2.5" width="100" height="100" rx="12"/></svg>